<?xml version="1.0" encoding="UTF-8"?>
<svg id="Isolation_Mode" data-name="Isolation Mode" xmlns="http://www.w3.org/2000/svg" viewBox="0 0 228.71 267.09">
  <defs>
    <style>
      .cls-1 {
        fill: #ffeac0;
      }
    </style>
  </defs>
  <path class="cls-1" d="m163.11,139.95c0,1.75-.19,3.3-.39,4.86-1.75,14-9.72,24.3-14.97,29.36-11.08,10.3-24.88,15.75-47.24,15.75h-4.66c-.78,0-1.36,0-2.14.19-4.47,1.75-9.33,2.33-14.39,2.33h-2.53c-3.3,0-6.22-.19-8.94-.19-14.78,0-23.13,2.14-26.24,14.39-.58,2.14-.78,4.28-.78,6.03,0,9.14,5.25,15.55,9.33,18.08,2.33,1.36,5.83,2.72,9.72,2.72,4.28,0,8.94-1.55,12.25-6.22,0,0,.19,1.56.19,3.89,0,9.33-2.92,32.47-32.08,35.77-1.17.19-2.53.19-3.69.19-13.61,0-27.8-7.58-33.24-19.83-1.36-3.11-3.3-9.33-3.3-16.53,0-10.3,3.89-22.55,18.27-31.49,14.97-9.14,50.94-11.08,55.99-11.86.58-.19.97-.58.97-.97,0-.58-.39-.97-.78-1.17-7.19-2.72-13.61-6.42-17.5-11.28-3.89-5.05-6.41-12.64-6.41-19.64,0-1.94.19-3.69.58-5.44,2.72-10.89,9.91-18.27,19.44-21,2.72-.78,5.44-1.17,8.17-1.17,11.08,0,21.97,6.22,27.02,15.16,3.5,5.83,5.25,12.05,5.25,18.47,0,4.28-.78,8.75-2.33,13.03-.97,2.92-2.53,5.83-4.28,8.36-.19.39-.39.78-.39,1.17,0,.78.58,1.56,1.55,1.56,25.86-.97,35.58-16.53,35.58-29.16v-.78c-.19-12.44-14.97-17.89-21-20.22-15.16-5.83-35.38-12.64-44.91-21.58-10.5-9.91-12.64-20.8-12.64-26.25,0-.97.19-1.75.19-2.33,1.17-7.97,4.86-15.55,13.41-21,8.55-5.64,19.83-8.55,31.88-8.55,8.55,0,16.72,1.55,23.72,4.47,17.69,7.19,21.77,17.11,21.77,24.3,0,1.56-.19,2.92-.39,4.28-1.55,7.19-7.58,11.86-14.19,12.64h-1.94c-6.61,0-13.22-2.72-16.72-7.78-2.72-3.89-3.3-8.17-3.3-11.08,0-2.14.39-3.69.39-3.69,0,0,2.33,4.28,7.58,4.28s8.75-4.67,8.75-8.75v-.39c-.39-12.83-18.66-15.55-25.66-15.55-12.05,0-28.58,2.53-28.58,14.19v.19c.19,4.86,3.11,10.11,14,16.72,10.69,6.42,34.8,12.44,48.41,20.22,16.91,9.53,21.19,21.38,21.19,31.3Zm-67.27,24.88c0-5.05-1.17-9.72-1.94-12.44-2.92-10.5-12.25-21.58-18.47-21.58-.58,0-1.17,0-1.55.19-3.31,1.17-4.47,4.67-4.47,9.14,0,7.58,3.5,17.89,6.61,23.33,3.3,5.64,7.78,10.5,13.03,14.19.58.39,1.17.39,1.55.39.97,0,1.75-.39,2.14-1.17,2.33-3.69,3.11-7.97,3.11-12.05Z"/>
  <g>
    <path class="cls-1" d="m44.58,52.67c.51-.43.95-.88,1.33-1.37.38-.48.66-.98.83-1.5.17-.52.21-1.05.11-1.58-.1-.53-.37-1.06-.82-1.59-.8-.94-1.74-1.46-2.83-1.55-1.09-.09-2.25.03-3.48.34-1.24.32-2.52.73-3.86,1.23-1.34.5-2.65.88-3.94,1.14-1.29.26-2.53.28-3.73.05-1.2-.23-2.28-.9-3.24-2.03-.58-.69-.95-1.4-1.11-2.15-.15-.74-.15-1.46,0-2.17s.41-1.38.78-2.02c.37-.64.76-1.24,1.19-1.78.43-.54.85-1.01,1.24-1.41.4-.4.72-.7.98-.92,1.11-.94,2.22-1.7,3.32-2.28,1.11-.58,2.16-.99,3.15-1.22.99-.23,1.88-.28,2.66-.15.78.13,1.39.45,1.82.95.6.71.86,1.52.78,2.43-.09.9-.48,1.65-1.17,2.24-.67.57-1.31.87-1.93.92-.61.05-1.21-.05-1.77-.3-.57-.25-1.12-.57-1.65-.97-.53-.4-1.06-.74-1.57-1.04-.51-.3-1-.48-1.48-.55-.48-.07-.96.1-1.44.51-.81.68-1.28,1.43-1.43,2.25-.14.81.13,1.62.81,2.43.6.71,1.39,1.07,2.37,1.08.97,0,2.06-.15,3.25-.48,1.2-.32,2.45-.72,3.77-1.21,1.31-.48,2.61-.84,3.88-1.07,1.27-.23,2.48-.25,3.61-.06,1.13.19,2.12.78,2.95,1.77.66.78,1.13,1.56,1.39,2.35s.39,1.55.37,2.29c-.02.75-.14,1.46-.37,2.15-.23.69-.53,1.33-.9,1.92-.82,1.41-1.97,2.74-3.44,3.98-1.5,1.27-2.92,2.19-4.27,2.76-1.35.57-2.6.91-3.74,1.01-1.14.1-2.11.01-2.92-.26-.8-.27-1.4-.63-1.79-1.09-.57-.67-.84-1.44-.84-2.31,0-.88.38-1.63,1.12-2.25.71-.6,1.41-.9,2.08-.9.67,0,1.33.16,1.98.48.65.32,1.29.72,1.92,1.19.64.47,1.28.87,1.92,1.19.65.32,1.3.49,1.96.5.66.01,1.36-.29,2.1-.92Z"/>
    <path class="cls-1" d="m53.87,18.55c1.41-.69,2.72-1.08,3.95-1.19,1.22-.11,2.34-.04,3.35.21,1.01.25,1.92.62,2.73,1.11.81.49,1.5,1,2.07,1.51.57.51,1.02.99,1.37,1.42.35.44.56.7.64.8l-13.6,11.44c.68.78,1.44,1.44,2.27,1.99.84.55,1.73.96,2.67,1.24.94.28,1.93.38,2.98.29,1.05-.09,2.12-.41,3.24-.95.95-.46,1.7-1.04,2.25-1.73.55-.69.99-1.36,1.31-2.02.36-.78.62-1.59.77-2.44l.33-.06c.06,1.44-.11,2.84-.53,4.18-.35,1.14-.95,2.33-1.79,3.56-.84,1.23-2.12,2.26-3.83,3.09-1.82.88-3.58,1.35-5.29,1.39-1.71.04-3.28-.22-4.71-.8-1.44-.57-2.73-1.4-3.88-2.49-1.15-1.08-2.07-2.32-2.76-3.71-.69-1.39-1.13-2.86-1.3-4.42-.17-1.56-.02-3.09.46-4.6.47-1.5,1.3-2.94,2.48-4.3,1.18-1.36,2.79-2.54,4.82-3.53Zm8.66,7.66c-1.05-1.27-2.04-2.39-2.96-3.39-.92-.99-1.8-1.77-2.65-2.33-.84-.56-1.66-.87-2.44-.93-.78-.06-1.54.23-2.28.86-.74.63-1.22,1.46-1.45,2.49-.23,1.04-.26,2.15-.09,3.34.18,1.19.54,2.41,1.1,3.66.56,1.25,1.28,2.4,2.16,3.45l8.59-7.15Z"/>
    <path class="cls-1" d="m76.67,31c-.92-7.51-2.72-14.81-5.4-21.91l-.03-.13c-.39-.93-1.01-1.63-1.89-2.1-.88-.47-1.8-.58-2.76-.34l-.08-.31,10.26-6.21c.16,1.27.38,2.69.66,4.29.28,1.59.62,3.26,1,5.02.39,1.75.81,3.55,1.26,5.4.45,1.84.92,3.63,1.39,5.36.47,1.73.96,3.38,1.45,4.93.49,1.56.96,2.92,1.4,4.08l.15.43c.35.94.97,1.64,1.85,2.11.88.47,1.8.58,2.76.34l.08.31-14.93,3.68-.08-.31c.97-.24,1.73-.77,2.29-1.59.56-.82.78-1.73.66-2.72l-.03-.32Z"/>
    <path class="cls-1" d="m107.13,7.58l9.9-.16v.32s-.13,0-.13,0c-.99.02-1.97.36-2.92,1.04-.95.68-1.65,1.5-2.09,2.48l-.13.32c-.58,1.52-1.1,2.91-1.56,4.19-.46,1.27-.89,2.53-1.27,3.75-.39,1.23-.74,2.48-1.05,3.75-.31,1.27-.62,2.65-.93,4.13l-.04.18c-.22,1.09-.01,1.95.63,2.57.43.26.87.48,1.34.63.47.16.95.23,1.43.23h.14s0,.31,0,.31l-15.06.24.04-.32c1-.02,1.76-.36,2.29-1.03.53-.67.67-1.5.41-2.5-.29-1.23-.54-2.31-.75-3.22-.21-.92-.42-1.75-.63-2.5-.21-.75-.43-1.46-.67-2.14-.24-.67-.51-1.38-.83-2.11-.31-.73-.68-1.56-1.1-2.47-.42-.91-.91-1.98-1.48-3.21l-.19-.45c-.47-.99-1.19-1.81-2.17-2.45-.98-.65-1.96-.96-2.96-.95h-.63s0-.31,0-.31l15.51-.25v.32c-.99.02-1.75.36-2.26,1.03-.52.67-.66,1.49-.43,2.45l.1.31c.26,1.23.51,2.31.73,3.22.23.92.44,1.75.65,2.5.21.75.43,1.46.67,2.12.24.66.51,1.36.83,2.11.31.75.67,1.57,1.08,2.47s.91,1.96,1.5,3.19c1.19-3.06,2.18-5.93,2.98-8.6.8-2.67,1.4-5,1.79-7l.08-.45c.19-1,.02-1.82-.52-2.48-.54-.65-1.3-.97-2.3-.96v-.32Z"/>
    <path class="cls-1" d="m138.77,33.99c-.16.99.03,1.91.56,2.75.53.84,1.27,1.4,2.23,1.67l-.09.3-11.05-3.16,1.02-3.57c-.85,1.11-1.98,1.88-3.39,2.32s-2.94.43-4.6-.04c-1.39-.4-2.52-.94-3.37-1.62-.86-.68-1.5-1.44-1.94-2.27s-.68-1.7-.74-2.61c-.05-.91.04-1.8.29-2.67.41-1.42,1.06-2.5,1.96-3.25.9-.75,1.92-1.27,3.06-1.57,1.14-.3,2.34-.41,3.62-.33,1.28.08,2.49.23,3.64.43,1.15.2,2.19.42,3.13.66.94.24,1.63.39,2.08.45.83-2.8,1.08-4.95.76-6.44-.33-1.49-1.1-2.41-2.32-2.75-.67-.19-1.24-.14-1.73.14-.49.28-.94.7-1.34,1.24-.41.54-.79,1.13-1.14,1.77-.35.64-.76,1.22-1.23,1.74-.46.53-1,.91-1.6,1.16-.61.25-1.33.26-2.17.02-.81-.23-1.41-.7-1.81-1.41-.39-.71-.47-1.47-.24-2.28.31-1.07.88-1.89,1.71-2.45s1.77-.95,2.8-1.15c1.03-.21,2.09-.27,3.18-.2,1.09.08,2.04.23,2.85.46,2.03.58,3.68,1.35,4.96,2.31,1.28.96,2.24,2.01,2.89,3.15.65,1.14,1.02,2.32,1.13,3.54.1,1.22,0,2.38-.31,3.49-.25.87-.52,1.75-.8,2.64-.29.89-.56,1.76-.82,2.61-.26.85-.49,1.66-.69,2.41-.2.76-.36,1.43-.46,2.03l-.04.46Zm-5.44-6.96c.13-.34.28-.77.46-1.28.18-.51.35-1.02.53-1.52.17-.5.32-.94.45-1.33.13-.39.2-.62.23-.71-.41-.09-.9-.2-1.45-.34-.55-.14-1.16-.27-1.8-.37-.64-.11-1.3-.13-1.98-.07-.68.06-1.33.26-1.96.59-.63.34-1.21.85-1.74,1.55-.53.7-.97,1.65-1.31,2.87-.49,1.71-.56,3.23-.22,4.55.34,1.32,1.2,2.18,2.56,2.57.75.22,1.46.11,2.11-.31.65-.42,1.25-.99,1.78-1.7.53-.71,1-1.48,1.39-2.31.39-.83.71-1.55.95-2.17Z"/>
    <path class="cls-1" d="m157.82,49.51c.53.39,1.08.72,1.63.99.56.26,1.11.42,1.65.47s1.07-.03,1.56-.25c.5-.21.95-.6,1.36-1.16.74-.99,1.02-2.03.86-3.11-.16-1.08-.54-2.18-1.13-3.31-.59-1.13-1.28-2.29-2.08-3.48s-1.46-2.38-2.01-3.57c-.55-1.19-.85-2.4-.9-3.62-.05-1.22.36-2.43,1.24-3.61.54-.73,1.15-1.25,1.84-1.57.69-.32,1.39-.48,2.11-.49.72,0,1.44.09,2.15.3.71.21,1.38.46,2.01.76s1.18.59,1.66.89c.48.3.85.54,1.11.74,1.17.86,2.16,1.77,2.98,2.72s1.46,1.88,1.91,2.79c.45.92.7,1.77.76,2.56.05.79-.12,1.45-.51,1.99-.56.75-1.28,1.19-2.18,1.31-.9.12-1.71-.09-2.44-.63-.71-.52-1.15-1.08-1.34-1.67-.18-.59-.22-1.19-.11-1.8.11-.61.3-1.22.57-1.83.26-.61.48-1.2.66-1.76s.24-1.09.2-1.57-.31-.91-.83-1.29c-.85-.63-1.69-.92-2.51-.88-.82.05-1.55.49-2.18,1.34-.56.75-.73,1.6-.51,2.55.22.95.62,1.97,1.21,3.06.59,1.09,1.26,2.22,2.03,3.39.77,1.17,1.41,2.35,1.92,3.54.51,1.19.81,2.35.88,3.5.07,1.14-.27,2.24-1.05,3.28-.61.82-1.27,1.45-1.97,1.89-.7.44-1.42.73-2.15.89s-1.46.2-2.18.13c-.72-.07-1.41-.21-2.07-.44-1.56-.48-3.11-1.29-4.66-2.44-1.58-1.17-2.8-2.34-3.66-3.53-.87-1.19-1.48-2.32-1.83-3.41-.36-1.09-.49-2.06-.42-2.9.08-.84.3-1.5.66-1.99.52-.7,1.21-1.15,2.06-1.34.86-.19,1.67,0,2.45.57.75.56,1.2,1.16,1.35,1.82.15.66.14,1.34-.02,2.04-.17.7-.4,1.42-.72,2.14-.31.73-.55,1.44-.72,2.14-.16.7-.18,1.38-.04,2.03.14.65.6,1.26,1.37,1.83Z"/>
    <path class="cls-1" d="m181.67,38.97l4.26,4.75c.88-.83,1.7-1.69,2.48-2.59l.1-.09c.66-.75.99-1.63.98-2.64,0-1-.35-1.88-1.01-2.62l.24-.21,10.27,6.1c-1.17.86-2.5,1.89-3.98,3.09-1.48,1.19-3.04,2.49-4.67,3.87l4.56,5.09-.61.54-4.56-5.09c-1.23,1.06-2.47,2.16-3.7,3.29-1.24,1.13-2.42,2.23-3.56,3.31-1.14,1.08-2.2,2.12-3.19,3.12-.99,1-1.85,1.92-2.59,2.77l-.31.33c-.41.4-.6.8-.58,1.19.02.39.19.71.51.97.32.26.74.44,1.27.53.53.09,1.12.05,1.77-.13l-.03.51c-.81.36-1.7.5-2.67.42-.97-.08-1.89-.32-2.78-.69-.89-.38-1.67-.88-2.36-1.51-.69-.63-1.19-1.33-1.49-2.1-.31-.77-.36-1.58-.15-2.43.21-.85.78-1.7,1.73-2.54,2.27-2.03,4.58-3.99,6.95-5.87,2.36-1.88,4.63-3.89,6.8-6.04l-4.29-4.78.61-.54Z"/>
    <path class="cls-1" d="m195.73,60.97c.27-.97.18-1.91-.28-2.82l.24-.12,8.28,8.69c-1.31.47-2.52.94-3.62,1.4-1.1.46-2.18.92-3.23,1.39l-4.44,2.24c-1.08.54-2.09,1.16-3.05,1.84-.95.68-1.74,1.42-2.36,2.2-.62.78-1.02,1.59-1.21,2.42-.19.83-.06,1.68.37,2.54.46.91,1.04,1.55,1.75,1.92.71.37,1.45.56,2.22.59.77.03,1.53-.06,2.27-.26.74-.2,1.39-.42,1.96-.63,1.4-.64,2.72-1.31,3.95-2.02,1.23-.71,2.21-1.38,2.94-2.01l.14-.12c.81-.54,1.35-1.3,1.62-2.26.27-.97.19-1.89-.26-2.78l-.02-.04.24-.12,8.28,8.69c-1.32.46-2.53.92-3.64,1.38-1.1.46-2.18.91-3.23,1.38-1.79.8-3.53,1.69-5.22,2.66-1.69.97-3.54,2.11-5.54,3.43l-.38.24c-.83.56-1.38,1.32-1.63,2.29-.25.97-.16,1.9.29,2.79l-.28.14-5.19-10.3c.34-.14.72-.28,1.15-.43.38-.12.8-.29,1.26-.51.46-.22.98-.43,1.54-.65-.69.04-1.39,0-2.1-.1-.72-.11-1.42-.35-2.13-.7s-1.37-.86-2-1.5c-.63-.64-1.21-1.49-1.74-2.54-.72-1.43-1.07-2.77-1.06-4.02s.31-2.42.9-3.49c.59-1.07,1.41-2.06,2.46-2.96,1.05-.9,2.26-1.7,3.63-2.39.54-.27,1.12-.58,1.76-.94.63-.35,1.21-.69,1.72-1.02.62-.38,1.24-.76,1.86-1.14l.16-.08c.81-.54,1.35-1.3,1.62-2.26Z"/>
    <path class="cls-1" d="m198.77,119.78c-.96.29-1.72.86-2.27,1.68-.55.83-.75,1.73-.6,2.72l-.31.05-1.68-11.36,3.76-.56c-1.54-.53-2.8-1.44-3.76-2.71-.97-1.27-1.61-3.02-1.94-5.22-.23-1.58-.09-3.01.44-4.27.53-1.27,1.3-2.38,2.32-3.34,1.02-.96,2.23-1.74,3.63-2.34,1.4-.6,2.87-1.02,4.41-1.25,1.54-.23,3.06-.26,4.58-.08,1.52.17,2.9.57,4.15,1.19,1.25.62,2.31,1.46,3.18,2.52s1.43,2.38,1.66,3.96c.22,1.46.19,2.75-.09,3.88-.28,1.12-.7,2.1-1.28,2.93-.58.83-1.24,1.53-2,2.1-.75.57-1.5,1.03-2.24,1.38,1.6-.3,3.2-.61,4.8-.94,1.6-.33,3.19-.7,4.77-1.12l.13-.06c.97-.27,1.72-.81,2.27-1.64.55-.83.75-1.73.6-2.72v-.04s.31-.05.31-.05l5.08,10.86c-1.25.03-2.67.11-4.28.25-1.61.13-3.31.31-5.09.52-1.78.22-3.6.46-5.47.74-1.86.28-3.68.57-5.45.87-1.77.31-3.44.62-5.03.95s-2.97.65-4.17.98l-.44.11Zm4.42-7.79c1.3-.1,2.6-.25,3.91-.44.29-.07.86-.26,1.7-.57.84-.31,1.69-.75,2.54-1.34.86-.58,1.59-1.33,2.18-2.24.6-.91.8-2.01.61-3.29-.19-1.28-.83-2.28-1.91-2.99-1.08-.71-2.37-1.17-3.86-1.37-1.49-.21-3.08-.18-4.76.09-1.68.26-3.21.73-4.57,1.41-1.36.67-2.46,1.54-3.27,2.59-.82,1.05-1.13,2.26-.93,3.63.16,1.07.57,1.92,1.24,2.54.67.62,1.44,1.07,2.31,1.37.87.3,1.74.48,2.62.55.88.07,1.61.09,2.18.07Z"/>
    <path class="cls-1" d="m197.56,133.7c-1,.04-1.86.4-2.58,1.08-.72.68-1.12,1.52-1.2,2.51l-.32-.02,1.17-14.52.32.02c-.08.99.18,1.88.78,2.67.6.79,1.39,1.28,2.38,1.48l.31.07c.71.15,1.61.3,2.69.44s2.21.27,3.4.36c1.19.1,2.38.17,3.59.22,1.21.05,2.29.06,3.27.01h.13c1-.06,1.87-.44,2.59-1.12.72-.68,1.12-1.52,1.2-2.51l.32.03,2.71,10.88c-1.84-.39-3.69-.71-5.55-.95-1.86-.24-3.66-.43-5.42-.57-1.76-.14-3.43-.22-5.02-.22-1.59,0-3.02.03-4.3.11h-.46Zm23.54-2.73c.08-.96.5-1.77,1.26-2.42.76-.65,1.63-.94,2.59-.86.99.08,1.8.5,2.44,1.26.63.76.91,1.62.84,2.59-.08.99-.49,1.8-1.24,2.44-.75.64-1.62.91-2.61.83-.96-.08-1.77-.49-2.42-1.24-.65-.75-.94-1.62-.86-2.61Z"/>
    <path class="cls-1" d="m197.95,164.59c-1.73-.52-3.24-1.28-4.51-2.26-1.28-.99-2.28-2.15-3-3.51-.72-1.35-1.16-2.88-1.29-4.57-.13-1.69.09-3.51.68-5.44.58-1.93,1.41-3.57,2.47-4.9,1.06-1.33,2.29-2.36,3.67-3.07,1.38-.72,2.88-1.13,4.49-1.24,1.61-.11,3.24.08,4.88.58,1.67.51,3.15,1.25,4.43,2.24,1.28.98,2.29,2.16,3.03,3.51.74,1.36,1.18,2.88,1.31,4.58.13,1.69-.09,3.51-.68,5.44-.58,1.93-1.4,3.57-2.45,4.91-1.05,1.34-2.26,2.37-3.63,3.09-1.37.72-2.86,1.14-4.46,1.25-1.61.11-3.25-.08-4.92-.59Zm-8.14-13.42c-.09.82.06,1.62.46,2.38.4.77,1.06,1.46,1.99,2.09.93.63,2.12,1.18,3.57,1.64,1.45.47,3.18.8,5.2,1,1.99.19,3.74.21,5.25.05,1.51-.16,2.78-.45,3.81-.88,1.03-.43,1.82-.98,2.36-1.65.55-.67.87-1.42.96-2.24.09-.82-.07-1.62-.48-2.39-.41-.77-1.08-1.48-2.01-2.12-.92-.64-2.11-1.19-3.57-1.65-1.45-.46-3.17-.78-5.16-.97-2.02-.2-3.78-.22-5.27-.06-1.5.16-2.76.46-3.79.91-1.03.44-1.82.99-2.36,1.65s-.86,1.39-.95,2.22Z"/>
  </g>
</svg>