<?xml version="1.0" encoding="UTF-8"?>
<svg id="Isolation_Mode" data-name="Isolation Mode" xmlns="http://www.w3.org/2000/svg" viewBox="0 0 494.91 644.74">
  <defs>
    <style>
      .cls-1 {
        fill: #171c1f;
      }
    </style>
  </defs>
  <path class="cls-1" d="m494.91,258.96c0,5.31-.59,10.03-1.18,14.75-5.31,42.47-29.49,73.73-45.42,89.07-33.63,31.26-75.5,47.78-143.34,47.78h-14.15c-2.36,0-4.13,0-6.49.59-13.57,5.31-28.31,7.08-43.65,7.08h-7.67c-10.03,0-18.88-.59-27.13-.59-44.83,0-70.2,6.49-79.63,43.65-1.77,6.49-2.36,12.98-2.36,18.29,0,27.72,15.93,47.19,28.31,54.86,7.08,4.13,17.7,8.26,29.49,8.26,12.98,0,27.13-4.72,37.16-18.88,0,0,.59,4.72.59,11.8,0,28.31-8.85,98.51-97.33,108.54-3.54.59-7.67.59-11.21.59-41.29,0-84.35-23.01-100.87-60.17-4.13-9.44-10.03-28.31-10.03-50.14,0-31.26,11.8-68.43,55.45-95.56,45.42-27.72,154.55-33.62,169.89-35.98,1.77-.59,2.95-1.77,2.95-2.95,0-1.77-1.18-2.95-2.36-3.54-21.82-8.26-41.29-19.47-53.09-34.21-11.8-15.34-19.46-38.34-19.46-59.58,0-5.9.59-11.21,1.77-16.52,8.26-33.03,30.08-55.45,58.99-63.71,8.26-2.36,16.52-3.54,24.78-3.54,33.62,0,66.66,18.88,81.99,46.01,10.62,17.7,15.93,36.57,15.93,56.04,0,12.98-2.36,26.54-7.08,39.52-2.95,8.85-7.67,17.7-12.98,25.36-.59,1.18-1.18,2.36-1.18,3.54,0,2.36,1.77,4.72,4.72,4.72,78.46-2.95,107.95-50.14,107.95-88.48v-2.36c-.59-37.75-45.42-54.27-63.71-61.35-46.01-17.7-107.36-38.34-136.26-65.48-31.85-30.08-38.34-63.12-38.34-79.63,0-2.95.59-5.31.59-7.08,3.54-24.18,14.75-47.19,40.7-63.71C257.19,8.85,291.4,0,327.97,0c25.96,0,50.73,4.72,71.97,13.57,53.68,21.83,66.07,51.91,66.07,73.73,0,4.72-.59,8.85-1.18,12.98-4.72,21.83-23,35.98-43.06,38.34h-5.9c-20.06,0-40.11-8.26-50.73-23.59-8.26-11.8-10.03-24.77-10.03-33.62,0-6.49,1.18-11.21,1.18-11.21,0,0,7.08,12.98,23.01,12.98s26.55-14.16,26.55-26.54v-1.18c-1.18-38.93-56.63-47.19-77.87-47.19-36.57,0-86.71,7.67-86.71,43.06v.59c.59,14.75,9.44,30.68,42.47,50.73,32.44,19.47,105.59,37.75,146.88,61.35,51.32,28.9,64.3,64.89,64.3,94.97Zm-204.1,75.5c0-15.34-3.54-29.49-5.9-37.75-8.85-31.85-37.16-65.48-56.04-65.48-1.77,0-3.54,0-4.72.59-10.03,3.54-13.57,14.16-13.57,27.72,0,23.01,10.62,54.27,20.06,70.79,10.03,17.11,23.59,31.85,39.52,43.06,1.77,1.18,3.54,1.18,4.72,1.18,2.95,0,5.31-1.18,6.49-3.54,7.08-11.21,9.44-24.19,9.44-36.57Z"/>
</svg>