<?xml version="1.0" encoding="UTF-8"?>
<svg id="Layer_1" data-name="Layer 1" xmlns="http://www.w3.org/2000/svg" viewBox="0 0 394.1 411.1">
  <defs>
    <style>
      .cls-1, .cls-2, .cls-3, .cls-4, .cls-5, .cls-6, .cls-7 {
        stroke: #171c1f;
        stroke-miterlimit: 10;
        stroke-width: 6.81px;
      }

      .cls-1, .cls-8 {
        fill: #fff2dc;
      }

      .cls-2 {
        fill: #f55102;
      }

      .cls-3 {
        fill: #86e8ef;
      }

      .cls-4 {
        fill: #bae019;
      }

      .cls-5 {
        fill: #bb64ff;
      }

      .cls-6 {
        fill: #ff85da;
      }

      .cls-7 {
        fill: none;
      }
    </style>
  </defs>
  <path class="cls-8" d="m356.25,304.9c-.24-.14-.49-.26-.73-.4l38.59-102.99-10.83-77.27-68.56,43.37-14.96,35.56.1-3.98h.66v-25.85l.31-12.09c6.07-6.11,11.14-13.08,14.96-20.68,6.51-12.95,12.62-34.22,4.76-61.98-3.84-13.57-10.75-25.86-20.53-36.53-5.5-6-11.91-11.42-18.56-15.7L240.42,0l19.36,44.78c5.44,12.59,6.52,22.43,3.21,29.25-2.28,4.68-6.28,7.22-12.64,10.97-8.26,4.88-19.56,11.56-22.27,26.84-1.82,10.29,1.45,21.22,8.21,41.52l-.12,2.82h-.46v10.83l-1.18,28.18c-4.62.2-9.2.71-13.7,1.51,3.06-5.02,4.21-11.21,2.69-17.36-1.78-7.24-6.87-12.93-13.42-15.64l-1.93-35.98-62.89-71.69-28.94,90.8,21.05,30.03.19,1.05c-8.62,4.94-13.32,15.18-10.83,25.29,2.21,8.97,9.5,15.57,18.36,17.06l3.42,19.26,1.23,7.13c-1.67-.46-3.35-.87-5.05-1.23l-39.77-60.25L8.09,248.66l33.26,51.01c-9.3,2.56-17.86,7.56-24.93,14.68-10.59,10.66-16.42,24.63-16.42,39.33,0,15.95,6.84,31.17,18.75,41.78,14.49,12.9,33.15,14.55,47.79,14.55,3.74,0,7.38-.11,10.91-.21,2.74-.08,5.32-.16,7.81-.18,2.88-.03,5.89-.04,8.95-.04,14.62,0,29.56.3,44.01.6,8.28.17,16.84.34,25.28.46,16.53.23,36.07.46,55.64.46,40.65,0,73.92-1.02,104.72-3.2,16.56-1.17,30.1-5.39,40.24-12.54,13.51-9.52,20.66-23.93,20.66-41.68,0-20.19-10.93-38.88-28.52-48.78Z"/>
  <path class="cls-3" d="m252.07,153.66c-7.1-21.23-10.65-31.85-9.34-39.24,2.94-16.6,24.66-15.46,33.63-33.9,6.67-13.72,2.17-29.83-2.94-41.64,5.47,3.52,25.3,17.19,32.83,43.78,1.88,6.62,7.71,28.49-3.74,51.25-7.09,14.11-17.61,22.19-23.22,25.89h-25.09c-.53-1.46-1.28-3.58-2.13-6.14Z"/>
  <polygon class="cls-5" points="76.69 326.65 28.64 252.96 100.71 205.72 151.46 282.59 76.69 326.65"/>
  <polygon class="cls-4" points="163.18 236.95 151.46 171.02 132.74 144.32 151.46 85.6 193.61 133.64 195.75 173.68 211.76 226 166.91 258.53 163.18 236.95"/>
  <rect class="cls-1" x="140.17" y="183.28" width="69.94" height="15.98" rx="7.99" ry="7.99" transform="translate(-40.7 47.5) rotate(-13.85)"/>
  <path class="cls-7" d="m151.46,85.6s11.72,39.77,13.05,49.92"/>
  <polygon class="cls-6" points="293.71 255.9 326.61 177.69 371.75 149.13 378.86 199.84 331.34 326.65 293.71 255.9"/>
  <path class="cls-7" d="m347.98,164.17c-1.22,10.59,19.27,18.59,28.26,13.39"/>
  <path class="cls-7" d="m326.61,177.69s15.96,29.26,52.25,22.16"/>
  <line class="cls-7" x1="348.26" y1="197.27" x2="306.08" y2="284.65"/>
  <polygon class="cls-2" points="248.18 224.4 251.27 150.99 286.23 150.99 284.18 231.08 248.18 224.4"/>
  <rect class="cls-7" x="250.58" y="171.03" width="35.08" height="13.31"/>
  <path class="cls-1" d="m369.91,353.69c0,27.96-22.59,37.66-47.09,39.39-52.95,3.75-106.06,3.43-159.1,2.7-26.19-.36-52.39-1.26-78.59-1.02-18.75.17-41.3,3.11-56.49-10.4-8.44-7.51-13.77-18.47-13.77-30.68,0-22.13,18.59-41.11,41.09-41.11,1.68,0,3.33.09,4.95.3,6.38-31.04,33.83-54.34,66.73-54.34,10.73,0,20.87,2.47,29.91,6.9,12.8-32.49,44.47-55.48,81.5-55.48,48.37,0,87.58,39.21,87.58,87.58,0,5.17-.45,10.26-1.32,15.2,1.16-.11,2.34-.16,3.52-.16,7.28,0,14.14,1.91,20.15,5.29,12.5,7.03,20.94,20.44,20.94,35.83Z"/>
  <path class="cls-7" d="m151.46,348.08c2.86-20.78,17.86-37.88,37.91-43.24,19.19-5.14,39.8,1.32,52.85,16.55,2.84-.05,20.83-.08,34.17,14.41,10.88,11.82,11.65,25.7,11.74,29.36"/>
</svg>