<?xml version="1.0" encoding="UTF-8"?>
<svg id="Isolation_Mode" data-name="Isolation Mode" xmlns="http://www.w3.org/2000/svg" viewBox="0 0 225.93 114.82">
  <defs>
    <style>
      .cls-1 {
        fill: #171c1f;
      }
    </style>
  </defs>
  <path class="cls-1" d="m72.03,45.76c0,.77-.09,1.46-.17,2.15-.77,6.18-4.29,10.73-6.61,12.96-4.89,4.55-10.99,6.95-20.86,6.95h-2.06c-.34,0-.6,0-.94.09-1.97.77-4.12,1.03-6.35,1.03h-1.12c-1.46,0-2.75-.09-3.95-.09-6.52,0-10.22.94-11.59,6.35-.26.94-.34,1.89-.34,2.66,0,4.03,2.32,6.87,4.12,7.98,1.03.6,2.58,1.2,4.29,1.2,1.89,0,3.95-.69,5.41-2.75,0,0,.09.69.09,1.72,0,4.12-1.29,14.34-14.16,15.8-.52.09-1.12.09-1.63.09-6.01,0-12.28-3.35-14.68-8.76-.6-1.37-1.46-4.12-1.46-7.3,0-4.55,1.72-9.96,8.07-13.91,6.61-4.03,22.49-4.89,24.72-5.24.26-.09.43-.26.43-.43,0-.26-.17-.43-.34-.52-3.18-1.2-6.01-2.83-7.73-4.98-1.72-2.23-2.83-5.58-2.83-8.67,0-.86.09-1.63.26-2.4,1.2-4.81,4.38-8.07,8.58-9.27,1.2-.34,2.4-.52,3.61-.52,4.89,0,9.7,2.75,11.93,6.7,1.55,2.58,2.32,5.32,2.32,8.16,0,1.89-.34,3.86-1.03,5.75-.43,1.29-1.12,2.58-1.89,3.69-.09.17-.17.34-.17.52,0,.34.26.69.69.69,11.42-.43,15.71-7.3,15.71-12.88v-.34c-.09-5.49-6.61-7.9-9.27-8.93-6.7-2.58-15.62-5.58-19.83-9.53-4.64-4.38-5.58-9.19-5.58-11.59,0-.43.09-.77.09-1.03.52-3.52,2.15-6.87,5.92-9.27,3.78-2.49,8.76-3.78,14.08-3.78,3.78,0,7.38.69,10.47,1.97,7.81,3.18,9.62,7.55,9.62,10.73,0,.69-.09,1.29-.17,1.89-.69,3.18-3.35,5.24-6.27,5.58h-.86c-2.92,0-5.84-1.2-7.38-3.43-1.2-1.72-1.46-3.61-1.46-4.89,0-.94.17-1.63.17-1.63,0,0,1.03,1.89,3.35,1.89s3.86-2.06,3.86-3.86v-.17c-.17-5.67-8.24-6.87-11.33-6.87-5.32,0-12.62,1.12-12.62,6.27v.09c.09,2.15,1.37,4.46,6.18,7.38,4.72,2.83,15.37,5.49,21.38,8.93,7.47,4.21,9.36,9.44,9.36,13.82Zm-29.7,10.99c0-2.23-.52-4.29-.86-5.49-1.29-4.64-5.41-9.53-8.16-9.53-.26,0-.52,0-.69.09-1.46.52-1.97,2.06-1.97,4.03,0,3.35,1.55,7.9,2.92,10.3,1.46,2.49,3.43,4.64,5.75,6.27.26.17.52.17.69.17.43,0,.77-.17.94-.51,1.03-1.63,1.37-3.52,1.37-5.32Z"/>
  <path class="cls-1" d="m118.03,41.04h-26.96c-.86,0-1.55.6-1.55,1.46v.26c.6,4.81,2.75,10.73,10.13,12.79,2.15.6,4.03.86,5.75.86,5.32,0,8.24-2.32,8.24-2.32-3.95,5.24-10.22,8.67-17.34,8.67-12.02,0-21.72-9.79-21.72-21.72v-.09c0-11.93,9.7-21.72,21.72-21.72s21.72,9.79,21.72,21.81Zm-27.04-1.2c6.27,0,10.73-5.15,10.73-10.73,0-2.06-.69-4.21-2.06-6.18-1.03-1.46-2.23-2.32-3.35-2.32-3.61,0-6.95,9.1-7.04,17.68,0,.86.69,1.55,1.55,1.55h.17Z"/>
  <path class="cls-1" d="m134.51,56.75c.34,2.75,2.58,4.81,5.41,4.81v1.2h-24.55v-1.2c3,0,5.41-2.4,5.41-5.32V10.73c0-2.92-2.4-5.32-5.41-5.32v-1.2c1.37-.09,13.05-.09,18.03-4.21h1.12v56.75Z"/>
  <path class="cls-1" d="m223,56.83c.14,0,.3,0,.45-.03.47-.07.83.42.65.86-.75,1.79-3.01,5.01-9.52,5.01-5.84,0-7.81-2.75-8.41-4.46-.17-.43-.6-.6-.94-.6-.26,0-.43,0-.6.17-1.97,1.46-6.27,4.29-11.33,4.81-.69.09-1.37.09-1.97.09-6.09,0-10.65-3.26-11.16-9.01-.09-.52-.09-.94-.09-1.46,0-5.49,3.78-9.19,12.36-10.82,6.44-1.2,10.13-2.23,11.93-5.67.69-1.2.94-2.58.94-3.86v-.58s0-.03,0-.04c-.43-7.8-3.01-10.11-6.44-10.28h-.52c-15.05,0-24.59,36.73-25.73,41.34-.07.28-.32.47-.6.47h-12.82c-.25,0-.48-.15-.58-.39l-12.55-31.29c-.69-1.72-2.32-5.32-4.12-7.64-.85-1.24-2.61-2.76-4.28-3.04-.3-.05-.53-.3-.53-.61h0c0-.36.28-.64.62-.64h24.68c.34,0,.62.28.62.62h0c0,.31-.24.57-.55.62-1.18.16-2.28.81-2.8,1.85-.26.52-.34,1.2-.34,1.89,0,1.8.6,4.2,1.54,6.94,0,.01,0,.02.01.04l10.04,24.88c.17.34.52.6.86.6s.69-.26.86-.6c0,0,7.73-37.17,26.44-39.4,1.2-.17,2.32-.17,3.35-.17,7.9,0,13.13,3.43,15.54,8.67,1.8,3.95,2.06,9.53,2.06,15.45v6.1c0,2.4,0,4.89.17,7.21.09,1.97,1.29,3,2.75,3Zm-17.17-18.89c0-.34-.26-.52-.52-.52-.17,0-.34.09-.43.26-3.69,6.27-9.44,7.55-9.44,14.08,0,3.09,2.06,6.1,5.06,6.1.52,0,1.03-.17,1.63-.34,2.23-.77,3.69-3,3.69-5.41v-14.16Z"/>
  <path class="cls-1" d="m73.07,101.56c0,.48,0,.96-.07,1.37-.34,3.22-1.99,6.24-5.48,8.5-3.5,2.19-8.09,3.36-12.95,3.36-3.43,0-6.72-.55-9.59-1.71-1.23-.48-6.99-2.95-8.7-7.95-.34-.96-.41-1.85-.41-2.74,0-.96.14-1.92.41-2.6,1.1-2.88,3.63-4.52,6.31-4.52,2.95,0,5.96,1.44,7.33,3.97.69,1.3.89,2.6.89,3.7,0,1.44-.34,2.47-.34,2.47,0,0-.82-1.85-2.88-2.06h-.34c-2.12,0-3.5,1.71-3.7,3.36v.62c0,5.28,7.74,6.58,11.03,6.58,4.93,0,11.17-2.47,11.99-6.31.07-.41.14-.82.14-1.17,0-1.71-.96-3.22-3.56-4.8-4.52-2.74-16.38-5.62-21.04-10.01-3.7-3.43-4.45-7.33-4.45-9.25,0-.34.07-.55.07-.75.41-2.81,1.71-5.48,4.8-7.47,2.95-1.92,6.92-3.02,11.17-3.02,3.02,0,5.89.55,8.36,1.58,6.24,2.54,7.68,6.03,7.68,8.63,0,.55-.07,1.03-.14,1.51-.48,2.47-2.67,4.18-5,4.39-.27,0-.55.07-.82.07-2.26,0-4.52-.96-5.76-2.81-.96-1.37-1.17-2.88-1.17-3.91,0-.75.14-1.23.14-1.23,0,0,.89,1.44,2.67,1.44,1.99,0,3.15-1.71,3.15-3.22-.21-4.52-6.65-5.48-9.11-5.48-4.18,0-10.01.89-10.01,5v.07c0,1.78,1.03,3.56,4.87,5.89,3.77,2.26,12.34,4.39,17.06,7.13,6.1,3.5,7.47,7.81,7.47,11.38Z"/>
  <path class="cls-1" d="m124.57,72.37c0,1.99-.82,4.04-2.74,5.35-1.64,1.1-3.5,1.37-5.14,1.37-1.92,0-3.36-.41-3.36-.41,0,0,.75-1.23.75-2.54,0-.96-.34-1.99-1.64-2.6-.69-.34-1.58-.55-2.54-.55-6.44,0-17.68,7.2-22.07,8.02-.55,0-1.03.41-1.03,1.03v22.48c0,2.26.69,3.56,1.92,4.18.41.21.89.27,1.37.27,1.44,0,2.74-.82,2.74-.82-1.71,3.56-4.25,6.65-10.07,6.65h-.55c-3.02-.14-5-2.81-5.62-4.39-.75-2.06-.82-4.32-.82-5.28v-23.1c0-.62-.41-1.1-1.03-1.1h-3.29v-.89s11.03,0,14.46-8.91h.89v7.88c0,.41.34.75.75.75,4.45-.07,13.16-10.9,23.1-13.64,1.23-.34,3.08-.75,5.07-.75,2.47,0,5.14.62,7.26,2.81,1.03,1.1,1.58,2.6,1.58,4.18Z"/>
  <path class="cls-1" d="m134.44,111.43c-1.03,0-10.42.07-14.32,3.36h-.96v-4.73c0-.27-.21-.48-.48-.48-.14,0-.27.07-.34.21-1.44,1.92-3.97,3.84-6.92,4.52-1.44.34-2.81.48-4.11.48-3.84,0-6.78-1.44-8.22-4.18-1.51-2.81-1.85-6.78-1.85-11.72v-10.76c-.21-2.12-2.06-3.77-4.25-3.77v-.96c1.03-.07,10.42-.07,14.39-3.36h.89v19.19c0,4.8.34,11.72,5.69,11.72h.07c1.58-.07,3.77-1.1,4.8-4.25.21-.89.34-1.78.34-2.67v-15.97c-.27-2.12-2.06-3.7-4.25-3.7v-.96c1.03-.07,10.42-.07,14.39-3.36h.89l-.07,26.18c.07,2.33,1.99,4.25,4.32,4.25v.96Z"/>
  <path class="cls-1" d="m188.48,109.85v-29.81h-.96c-3.91,3.36-13.3,3.36-14.32,3.43v.89c2.33,0,4.25,1.92,4.25,4.25v20.97c0,2.16-1.83,4.1-3.98,4.24s-4.24-1.65-4.51-3.83v-45.3h-.9c-3.97,3.29-13.36,3.29-14.39,3.35v.96c2.4,0,4.32,1.92,4.32,4.25v7.41c0,.27-.27.55-.55.55-.07,0-.13-.07-.2-.07-1.85-.68-3.91-1.1-6.03-1.1-9.53,0-17.34,7.74-17.34,17.34,0,3.39,1,6.75,2.86,9.58,1.82,2.77,4.43,4.99,7.46,6.34,4.35,1.93,9.22,1.46,13.86,1.47.02,0,.04,0,.07,0,.25,0,.5,0,.75,0,2.83.01,5.66.02,8.49.02,2.4,0,4.79,0,7.19,0,1.02,0,2.03,0,3.05,0h15.22v-.96c-2.33,0-4.18-1.78-4.32-3.98Zm-34.12,1.88c-.12,0-.24.06-.42.06-2.73,0-6.08-5.71-7.78-13.25-.61-2.79-.91-5.47-.91-7.78,0-4.25.97-7.3,2.8-7.66.12,0,.24-.06.42-.06,2.74,0,6.08,5.71,7.78,13.25.61,2.8.91,5.47.91,7.78,0,4.26-.97,7.3-2.8,7.66Z"/>
  <path class="cls-1" d="m182.99,64.69c-3.35,0-6.1,2.67-6.1,6.03s2.74,6.1,6.1,6.1,6.03-2.74,6.03-6.1-2.67-6.03-6.03-6.03Z"/>
  <path class="cls-1" d="m225.93,97.45c0,9.53-7.81,17.34-17.34,17.34s-17.41-7.81-17.41-17.34,7.81-17.41,17.41-17.41,17.34,7.81,17.34,17.41Zm-11.45,6.62c0-2.31-.3-4.98-.91-7.78-1.64-7.48-5.05-13.25-7.78-13.25-.18,0-.3.06-.43.06-1.76.43-2.74,3.46-2.74,7.72,0,2.31.24,4.98.85,7.72,1.7,7.54,5.11,13.25,7.78,13.25.18,0,.3-.06.43-.06,1.82-.36,2.8-3.4,2.8-7.66Z"/>
</svg>