<?xml version="1.0" encoding="UTF-8"?>
<svg id="Isolation_Mode" data-name="Isolation Mode" xmlns="http://www.w3.org/2000/svg" viewBox="0 0 152.26 175.24">
  <defs>
    <style>
      .cls-1 {
        fill: #bae019;
      }

      .cls-1, .cls-2, .cls-3, .cls-4, .cls-5, .cls-6, .cls-7, .cls-8, .cls-9 {
        stroke: #171c1f;
      }

      .cls-1, .cls-2, .cls-3, .cls-4, .cls-6, .cls-7, .cls-8, .cls-9 {
        stroke-miterlimit: 10;
      }

      .cls-1, .cls-6 {
        stroke-width: 1.45px;
      }

      .cls-2, .cls-3, .cls-4, .cls-5 {
        stroke-width: 2.9px;
      }

      .cls-2, .cls-8 {
        fill: #86e8ef;
      }

      .cls-3, .cls-5, .cls-10 {
        fill: #fff2dc;
      }

      .cls-4, .cls-7, .cls-9 {
        fill: #ff85da;
      }

      .cls-5 {
        stroke-linecap: round;
        stroke-linejoin: round;
      }

      .cls-6 {
        fill: #bb64ff;
      }

      .cls-7, .cls-8 {
        stroke-width: 1.27px;
      }

      .cls-9 {
        stroke-width: 2.54px;
      }
    </style>
  </defs>
  <path class="cls-10" d="m45.29,175.24v-35.77l-15.67-29.87,4.22-10.33h-13.15s-20.69-.2-20.69-.2v-30.81h49.28c1.93-2.63,4.98-4.21,8.32-4.21h2.19c2.21,0,4.35.72,6.1,2.01,1.76-1.28,3.9-2.01,6.1-2.01h2.19c2.01,0,3.97.59,5.63,1.68,1.66-1.08,3.62-1.68,5.63-1.68h2.19c2.59,0,5.07.99,6.96,2.7,1.55-.89,3.32-1.37,5.13-1.37h2.19c2.69,0,5.23,1.03,7.15,2.88h14.27l22.87,7.01c3.57,1.13,5.94,4.15,6.04,7.7.1,3.53-2.08,6.66-5.54,7.97l-.1.04c-4.8,1.76-9.69,3.51-14.53,5.21-1.24.43-2.75.88-4.21,1.32-1.29.38-2.63.78-3.66,1.14l-.31.11-.32.03c-2.02.19-3.03.23-5.1.31-1.36.05-2.74.08-4.11.08-.43,0-.87,0-1.31,0v20.95l-16.12,24.1v31.02h-51.65Zm38.97-12.68v-22.19l16.12-24.1v-10.34h-.64c-1.81,0-3.58-.48-5.13-1.37-1.88,1.71-4.36,2.7-6.96,2.7h-2.19c-2.99,0-5.74-1.27-7.65-3.39-1.06,1-2.25,1.93-3.55,2.76,2.78,2.44,5.64,5.6,7.01,9.61,1.41,4.14,1.44,8.19,1.46,11.76l.02,2.72-12.68.07-.02-2.72c-.02-2.73-.03-5.55-.78-7.73-.47-1.39-2.1-3.2-4.85-5.4-1.01-.81-2.21-1.54-3.55-2.16-.24-.11-.48-.22-.72-.34-.54-.26-1.28-.61-1.55-.66l-2.39-.17-.57-12.01,2.38-.4c.2-.03.4-.07.62-.11h-11.01l-4.03,9.84,14.38,27.41v26.21h26.29Z"/>
  <path class="cls-10" d="m145.41,77.86l-20.56-6.3-1.9-.58h-15.06c-1.4-1.75-3.55-2.88-5.95-2.88h-2.19c-2.18,0-4.15.93-5.54,2.4-1.33-2.23-3.77-3.73-6.55-3.73h-2.19c-2.23,0-4.24.96-5.63,2.5-1.39-1.53-3.4-2.5-5.63-2.5h-2.19c-2.5,0-4.71,1.21-6.1,3.07-1.39-1.86-3.61-3.07-6.1-3.07h-2.19c-2.97,0-5.55,1.71-6.81,4.21H2.72v25.4l18,.18h17.18l-5.28,12.9,15.39,29.35v33.72h46.22v-29.13l16.12-24.1v-22.91c2.51.09,5.2.11,8.03,0,2.1-.08,3.04-.12,4.95-.3,2.25-.77,5.59-1.66,7.85-2.45,4.89-1.72,9.72-3.45,14.5-5.2l.07-.03c2.37-.9,3.86-3,3.79-5.36-.07-2.38-1.69-4.41-4.14-5.19Zm-58.42,63.34v24.08h-31.73v-28.26l-14.66-27.94,5.2-12.7h25.41c-3.48,3.46-9.21,4.92-12.74,5.51l.34,7.19c.7.05,1.54.45,2.51.91.23.11.46.22.69.32,1.55.71,2.93,1.56,4.12,2.51,2.04,1.64,4.85,4.1,5.72,6.65.89,2.6.9,5.65.92,8.6l7.25-.04c-.02-3.37-.04-7.18-1.31-10.9-1.46-4.28-5.06-7.57-8.04-9.95-.42-.33-.85-.66-1.29-.97,3.4-1.54,6.58-3.75,8.86-6.9,1,3.04,3.86,5.24,7.23,5.24h2.19c2.78,0,5.22-1.5,6.55-3.73,1.39,1.48,3.36,2.4,5.54,2.4h2.19c.4,0,.79-.03,1.17-.09v13.97l-16.12,24.1Z"/>
  <path class="cls-8" d="m87.78,20.5c-6.86,1.9-8.4,3.43-10.3,10.3-1.9-6.86-3.43-8.4-10.3-10.3,6.86-1.9,8.4-3.43,10.3-10.3,1.9,6.86,3.43,8.4,10.3,10.3Z"/>
  <path class="cls-10" d="m74.86,31.52c-1.65-5.97-2.43-6.75-8.4-8.4l-9.49-2.62,9.49-2.62c5.97-1.65,6.75-2.43,8.4-8.4l2.62-9.49,2.62,9.49c1.65,5.97,2.43,6.75,8.4,8.4l9.49,2.62-9.49,2.62c-5.97,1.65-6.75,2.43-8.4,8.4l-2.62,9.49-2.62-9.49Z"/>
  <path class="cls-10" d="m105.49,51.47c-2.05-7.43-3.03-8.41-10.46-10.46l-11.81-3.26,11.81-3.26c7.43-2.05,8.41-3.03,10.46-10.46l3.26-11.81,3.26,11.81c2.05,7.43,3.03,8.41,10.46,10.46l11.81,3.26-11.81,3.26c-7.43,2.05-8.41,3.03-10.46,10.46l-3.26,11.81-3.26-11.81Z"/>
  <path class="cls-1" d="m87.78,20.5c-6.86,1.9-8.4,3.43-10.3,10.3-1.9-6.86-3.43-8.4-10.3-10.3,6.86-1.9,8.4-3.43,10.3-10.3,1.9,6.86,3.43,8.4,10.3,10.3Z"/>
  <g>
    <path class="cls-4" d="m144.31,81.31l-20.19-6.18v17.1l20.35-7.22c2.01-.76,1.91-3.05-.16-3.7Z"/>
    <rect class="cls-4" x="6.34" y="74.6" width="114.88" height="18.16"/>
  </g>
  <rect class="cls-2" x="6.34" y="74.6" width="114.88" height="18.16"/>
  <rect class="cls-9" x="24.34" y="74.78" width="11.9" height="18.16"/>
  <line class="cls-3" x1="132.39" y1="78.29" x2="132.39" y2="89.07"/>
  <path class="cls-5" d="m76.38,128.04c-.02-3.26-.05-6.63-1.12-9.75-1.14-3.34-4.19-6.14-6.88-8.3-1.49-1.19-3.14-2.17-4.87-2.97-1.46-.67-2.84-1.44-4.46-1.56,6.58-1.1,14.35-3.91,17.46-10.34.77-1.59,1.02-3.32,1.16-5.07.15-2-1.5-3.67-3.49-3.53l-27.14,1.94c-1.21.09-2.28.85-2.74,1.98l-7.7,18.82,15.03,28.64v30.99h38.97v-26.61l16.12-24.1v-43.35l-53.12-.06.4,14.39"/>
  <rect class="cls-3" x="53.61" y="70.4" width="10.17" height="20.19" rx="3.99" ry="3.99"/>
  <rect class="cls-3" x="68.01" y="70.4" width="10.17" height="20.19" rx="3.99" ry="3.99"/>
  <rect class="cls-3" x="81.47" y="70.4" width="10.17" height="30.52" rx="3.99" ry="3.99"/>
  <rect class="cls-3" x="95.75" y="71.73" width="10.17" height="27.86" rx="3.99" ry="3.99"/>
  <path class="cls-7" d="m126,37.75c-12.24,2.77-14.48,5.01-17.25,17.25-2.77-12.24-5.01-14.48-17.25-17.25,12.24-2.77,14.48-5.01,17.25-17.25,2.77,12.24,5.01,14.48,17.25,17.25Z"/>
  <path class="cls-6" d="m126,37.75c-12.24,2.77-14.48,5.01-17.25,17.25-2.77-12.24-5.01-14.48-17.25-17.25,12.24-2.77,14.48-5.01,17.25-17.25,2.77,12.24,5.01,14.48,17.25,17.25Z"/>
</svg>