<?xml version="1.0" encoding="UTF-8"?>
<svg id="Isolation_Mode" data-name="Isolation Mode" xmlns="http://www.w3.org/2000/svg" viewBox="0 0 108.68 103.51">
  <defs>
    <style>
      .cls-1 {
        fill: #86e8ef;
      }

      .cls-1, .cls-2 {
        stroke-width: 2.23px;
      }

      .cls-1, .cls-2, .cls-3 {
        stroke-miterlimit: 10;
      }

      .cls-1, .cls-2, .cls-3, .cls-4 {
        stroke: #171c1f;
      }

      .cls-2 {
        fill: #ff85da;
      }

      .cls-3 {
        stroke-width: 3.47px;
      }

      .cls-3, .cls-5, .cls-4 {
        fill: #fff2dc;
      }

      .cls-4 {
        stroke-linecap: round;
        stroke-linejoin: round;
        stroke-width: .99px;
      }
    </style>
  </defs>
  <path class="cls-5" d="m90.32,0h-38.76c-4.17,0-8.02,1.4-11.11,3.75-3.29-.92-6.81-1.41-10.41-1.41-7.54,0-14.73,2.12-20.23,5.96C3.57,12.65,0,18.94,0,25.56s3.57,12.91,9.8,17.26c5.5,3.84,12.69,5.96,20.23,5.96,1.06,0,2.11-.05,3.16-.13v36.51c0,10.12,8.24,18.36,18.36,18.36h38.76c10.12,0,18.36-8.24,18.36-18.36V18.36c0-10.12-8.24-18.36-18.36-18.36Z"/>
  <rect class="cls-2" x="40.64" y="7.44" width="60.6" height="88.63" rx="10.92" ry="10.92"/>
  <rect class="cls-1" x="46.44" y="17.31" width="49" height="65.54" rx="1.42" ry="1.42"/>
  <rect class="cls-4" x="63.8" y="85.37" width="14.27" height="4.23" rx="2.11" ry="2.11"/>
  <path class="cls-4" d="m83.83,11.35v.94c0,.63-.51,1.15-1.15,1.15h-1.85v1.24c0,.22-.18.4-.4.4h-5.01c-.22,0-.4-.18-.4-.4v-1.24h-15.83c-.63,0-1.15-.51-1.15-1.15v-1.09c0-.55.45-1,1-1h23.64c.63,0,1.15.51,1.15,1.14Z"/>
  <path class="cls-3" d="m57.38,44.59l-12.44-7.17c-3.98,2.44-9.19,3.92-14.91,3.92-12.48,0-22.59-7.06-22.59-15.77s10.11-15.77,22.59-15.77,22.59,7.06,22.59,15.77c0,2.54-.86,4.93-2.38,7.06l7.14,11.97Z"/>
</svg>