<?xml version="1.0" encoding="UTF-8"?>
<svg id="Isolation_Mode" data-name="Isolation Mode" xmlns="http://www.w3.org/2000/svg" viewBox="0 0 156.09 151.78">
  <defs>
    <style>
      .cls-1, .cls-2, .cls-3 {
        stroke: #171c1f;
        stroke-miterlimit: 10;
        stroke-width: 4.19px;
      }

      .cls-1, .cls-3, .cls-4 {
        fill: #fff2dc;
      }

      .cls-2 {
        fill: #86e8ef;
      }

      .cls-3 {
        stroke-linecap: round;
      }
    </style>
  </defs>
  <path class="cls-4" d="m156.09,69.68c0-14.68-9.22-27.41-22.43-32.33C131.53,16.4,113.79,0,92.29,0c-7.8,0-15.4,2.17-21.99,6.29-4.49,2.8-8.38,6.42-11.5,10.64-.53-.02-1.06-.04-1.6-.04-7.64,0-14.88,2.45-20.94,7.08-4.23,3.24-7.67,7.45-10.01,12.2C11.13,39.9,0,53.6,0,69.68s11.92,30.67,27.7,33.84v32.59c0,8.64,7.03,15.67,15.67,15.67h69.92c8.64,0,15.67-7.03,15.67-15.67v-32.71c15.49-3.39,27.12-17.22,27.12-33.71Z"/>
  <path class="cls-1" d="m146.93,69.68c0,14.01-11.35,25.36-25.36,25.36-12.62,0-23.09-9.23-25.02-21.32-1.4.18-2.81.28-4.26.28-6.23,0-12.06-1.77-17.01-4.81-4.24,4.31-10,7.1-16.41,7.51-3.04,10.59-12.79,18.34-24.36,18.34-14.01,0-25.36-11.35-25.36-25.36s10.46-24.44,23.7-25.29c3.03-10.59,12.79-18.34,24.36-18.34,2.14,0,4.23.27,6.21.77,5.37-10.49,16.29-17.66,28.87-17.66,17.91,0,32.42,14.51,32.42,32.42,0,.99-.04,1.97-.13,2.94,12.59,1.48,22.36,12.18,22.36,25.17Z"/>
  <rect class="cls-2" x="36.85" y="66.91" width="82.96" height="75.71" rx="6.52" ry="6.52"/>
  <g>
    <circle class="cls-3" cx="102.53" cy="77.59" r="5.4"/>
    <line class="cls-3" x1="102.53" y1="72.19" x2="102.53" y2="54.05"/>
  </g>
  <g>
    <circle class="cls-3" cx="78.04" cy="77.59" r="5.4"/>
    <line class="cls-3" x1="78.04" y1="72.19" x2="78.04" y2="54.05"/>
  </g>
  <circle class="cls-1" cx="53.55" cy="77.59" r="5.4"/>
  <line class="cls-3" x1="53.55" y1="72.19" x2="53.55" y2="54.05"/>
</svg>