<?xml version="1.0" encoding="UTF-8"?>
<svg id="Isolation_Mode" data-name="Isolation Mode" xmlns="http://www.w3.org/2000/svg" viewBox="0 0 116.64 125.07">
  <defs>
    <style>
      .cls-1 {
        fill: #86e8ef;
      }

      .cls-1, .cls-2, .cls-3, .cls-4, .cls-5, .cls-6 {
        stroke-width: 2.9px;
      }

      .cls-1, .cls-2, .cls-3, .cls-4, .cls-5, .cls-6, .cls-7 {
        stroke: #171c1f;
      }

      .cls-1, .cls-2, .cls-3, .cls-5, .cls-6, .cls-7 {
        stroke-miterlimit: 10;
      }

      .cls-2 {
        fill: #ff85da;
      }

      .cls-3 {
        fill: #bae019;
      }

      .cls-4 {
        stroke-linejoin: round;
      }

      .cls-4, .cls-8 {
        fill: #fff2dc;
      }

      .cls-4, .cls-7 {
        stroke-linecap: round;
      }

      .cls-5 {
        fill: #bb64ff;
      }

      .cls-6 {
        fill: #f55102;
      }

      .cls-7 {
        fill: none;
        stroke-width: 2.91px;
      }
    </style>
  </defs>
  <path class="cls-8" d="m96.17,56.84l20.47,4.26-15.59-40.46L63.69,0v4.92l-5.82,4.87-2.23-1.9-15.6,10.87,6.73,6.08c-1.12-.07-2.24-.11-3.36-.11-8.14,0-16.23,2-23.39,5.78-6.92,3.65-12.98,8.97-17.53,15.36C.77,48.28-.08,51.13.02,54.1c.1,2.91,1.12,5.68,2.94,7.99,2.9,3.68,4.43,8.11,4.43,12.81s-1.53,9.13-4.43,12.81c-1.8,2.29-2.82,5.02-2.95,7.89-.13,2.97.7,5.82,2.41,8.23,4.54,6.42,10.61,11.76,17.55,15.43,7.17,3.8,15.28,5.8,23.44,5.8h0c.53,0,1.08,0,1.62-.03,12.88-.41,24.99-5.74,34.11-15.03,9.12-9.28,14.24-21.49,14.43-34.37.07-5.09-.6-10.06-1.98-14.8l4.57-4Z"/>
  <path class="cls-3" d="m59.16,33.01l24.52,27.54,10.95-9.58c-1.33-3.65-4.02-9.6-9.41-15.4-5.96-6.41-12.39-9.61-16.09-11.12l-9.97,8.57Z"/>
  <path class="cls-3" d="m69.13,24.45s6.15,3.08,13.05,8.15c6.9,5.07,12.45,18.38,12.45,18.38l13.35,2.78-11.3-29.31-27.55-15.23v15.23Z"/>
  <polyline class="cls-5" points="57.59 16.42 60.88 19.87 55.39 25.3 48.76 19.31 55.31 14.75 57.84 16.9 68.61 7.89"/>
  <path class="cls-4" d="m88.14,75.57c.37-25.02-19.8-45.41-44.73-45.41-15.06,0-28.38,7.44-36.49,18.85-2.09,2.94-1.92,6.88.31,9.71,3.5,4.45,5.59,10.07,5.59,16.17s-2.09,11.72-5.59,16.18c-2.21,2.8-2.43,6.71-.37,9.62,8.36,11.82,22.31,19.41,38,18.92,23.73-.75,42.93-20.31,43.28-44.04Z"/>
  <circle class="cls-6" cx="30.88" cy="52.6" r="6.42"/>
  <circle class="cls-5" cx="50.45" cy="48.81" r="4.94"/>
  <circle class="cls-2" cx="66.82" cy="64.41" r="5.39"/>
  <circle class="cls-3" cx="67.59" cy="88.28" r="6.16"/>
  <circle class="cls-6" cx="50.45" cy="100.92" r="4.94"/>
  <circle class="cls-2" cx="30.88" cy="99.06" r="6.42"/>
  <ellipse class="cls-1" cx="37.93" cy="75.19" rx="8.85" ry="6.93"/>
  <line class="cls-7" x1="17.78" y1="59.02" x2="14.7" y2="55.68"/>
  <path class="cls-7" d="m20.61,85.97c6.67-8.15,0-20.28,0-20.28"/>
  <path class="cls-7" d="m15.39,94.36c.97-1.12,1.64-2.11,2.4-3.25"/>
</svg>