<?xml version="1.0" encoding="UTF-8"?>
<svg id="Isolation_Mode" data-name="Isolation Mode" xmlns="http://www.w3.org/2000/svg" viewBox="0 0 107.92 104.36">
  <defs>
    <style>
      .cls-1, .cls-2, .cls-3, .cls-4, .cls-5, .cls-6, .cls-7, .cls-8, .cls-9, .cls-10 {
        stroke: #171c1f;
        stroke-miterlimit: 10;
      }

      .cls-1, .cls-2, .cls-4, .cls-7 {
        stroke-width: 2.61px;
      }

      .cls-1, .cls-10 {
        fill: #bb64ff;
      }

      .cls-2, .cls-5 {
        fill: #ff85da;
      }

      .cls-3 {
        stroke-linecap: round;
      }

      .cls-3, .cls-6, .cls-8, .cls-9 {
        fill: none;
      }

      .cls-3, .cls-8, .cls-10 {
        stroke-width: 3.05px;
      }

      .cls-4, .cls-11 {
        fill: #fff2dc;
      }

      .cls-5, .cls-6 {
        stroke-width: 2.67px;
      }

      .cls-12 {
        fill: #86e8ef;
      }

      .cls-7 {
        fill: #bae019;
      }

      .cls-9 {
        stroke-width: 3.83px;
      }
    </style>
  </defs>
  <path class="cls-11" d="m95.97,23.9h-9.18c-1-2.64-3.31-4.65-6.13-5.22v-9.61c0-4.54-3.69-8.3-8.23-8.38L36.14,0c-2.27-.04-4.41.81-6.03,2.4-1.62,1.59-2.51,3.72-2.51,5.99v8.49l-10.37.22c-.2-.79-.52-1.55-.94-2.25l-.02-.04c-1.31-2.18-3.51-3.64-6.03-3.99l-.69-.1c-2.4-.34-4.83.39-6.66,1.98-1.83,1.59-2.88,3.9-2.88,6.33v9.09c0,3.62,2.3,6.71,5.52,7.88l-5.1,3.96,8.73,8.05L.38,58.59l5.37,9.47H.54v31.45h59.32c4.84,3.07,10.58,4.85,16.72,4.85,17.28,0,31.34-14.06,31.34-31.34v-37.16c0-6.59-5.36-11.96-11.96-11.96Zm-66.13,3.38c2.21-.05,4.27-.94,5.81-2.52,1.54-1.58,2.39-3.66,2.39-5.87v-8.41l32.16.61v7.59c-2.82.57-5.13,2.58-6.13,5.22h-6.89c-3.87,0-7.32,1.85-9.5,4.71h-29.88l.25-1.09,11.78-.25Z"/>
  <rect class="cls-5" x="68.77" y="23.74" width="13.33" height="6.19" rx="3.1" ry="3.1"/>
  <polygon class="cls-2" points="51.5 33.84 16.81 33.84 8.5 40.3 16.24 47.44 54.37 47.44 54.37 33.3 51.5 33.84"/>
  <line class="cls-8" x1="56.52" y1="39.63" x2="18.28" y2="39.63"/>
  <line class="cls-8" x1="19.09" y1="33.84" x2="19.09" y2="47.44"/>
  <polygon class="cls-7" points="56.52 53.09 12.63 52.02 6.71 59.15 11.28 67.23 56.52 66.42 56.52 53.09"/>
  <line class="cls-8" x1="31.61" y1="52.02" x2="31.61" y2="67.23"/>
  <line class="cls-8" x1="25.42" y1="52.02" x2="25.42" y2="67.23"/>
  <line class="cls-6" x1="6.71" y1="59.15" x2="12.49" y2="59.15"/>
  <circle class="cls-10" cx="15.88" cy="59.82" r="3.39"/>
  <polygon class="cls-1" points="67.83 94.29 5.76 94.29 5.76 73.29 69.44 73.29 69.44 94.29 67.83 94.29"/>
  <line class="cls-3" x1="44.54" y1="74.33" x2="44.54" y2="82.14"/>
  <line class="cls-3" x1="38.28" y1="73.75" x2="38.28" y2="81.56"/>
  <line class="cls-3" x1="31.61" y1="74.1" x2="31.61" y2="81.9"/>
  <line class="cls-3" x1="25.42" y1="73.75" x2="25.42" y2="81.56"/>
  <line class="cls-3" x1="19.02" y1="74.1" x2="19.02" y2="81.9"/>
  <line class="cls-3" x1="12.49" y1="73.95" x2="12.49" y2="81.76"/>
  <path class="cls-1" d="m76.58,29.13h-19.39c-3.72,0-6.73,3.01-6.73,6.73v11.58h26.12v-18.31Z"/>
  <path class="cls-7" d="m95.97,29.13h-19.39v18.31h26.12v-11.58c0-3.72-3.01-6.73-6.73-6.73Z"/>
  <path class="cls-4" d="m50.46,47.44v25.58c0,14.43,11.69,26.12,26.12,26.12h0c14.42,0,26.12-11.69,26.12-26.12v-25.58h-52.24Z"/>
  <path class="cls-9" d="m75.44,23.74v-14.67c0-1.72-1.38-3.13-3.1-3.16l-36.29-.69c-1.77-.03-3.22,1.39-3.22,3.16v10.51c0,1.72-1.37,3.12-3.09,3.16l-13.39.28c-1.53.03-2.81,1.15-3.05,2.66l-.62,2.64c-.11.66-.3,1.74-.77,2.21l-.5.5c-.59.59-1.4.93-2.24.93h-.78c-1.75,0-3.16-1.42-3.16-3.16v-9.09c0-1.92,1.7-3.4,3.6-3.13l.69.1c.95.13,1.78.69,2.27,1.5l.03.04c.27.45.42.95.45,1.47l-.08,10.56"/>
  <rect class="cls-12" x="6.37" y="16.38" width="4.26" height="14.58" rx="1.87" ry="1.87"/>
</svg>